<?xml version="1.0" encoding="UTF-8"?>
<!-- Created with Inkscape (http://www.inkscape.org/) -->
<svg width="24" height="24" version="1.1" viewBox="0 0 24 24" xml:space="preserve" xmlns="http://www.w3.org/2000/svg"><rect x="4" y="4" width="16" height="16" rx="2" ry="2" fill="none" stroke="#000" stroke-width="1.5"/><path d="m11.812 11.962q0 1.0547-0.19336 1.8691-0.1875 0.81445-0.55078 1.377-0.35742 0.55664-0.88476 0.84961-0.52148 0.28711-1.1895 0.28711-0.63281 0-1.1309-0.27539-0.49219-0.28125-0.83203-0.81445-0.33984-0.5332-0.51562-1.3066-0.17578-0.7793-0.17578-1.7812 0-1.1016 0.18164-1.9453 0.1875-0.84375 0.54492-1.4121 0.35742-0.57422 0.88477-0.86133 0.5332-0.29297 1.2188-0.29297 2.6426 0 2.6426 4.3066zm-0.98438 0.09375q0-3.5859-1.7051-3.5859-1.7988 0-1.7988 3.6504 0 3.4043 1.7637 3.4043 1.7402 0 1.7402-3.4688zm6.832-1.8574-2.0156 3.0352 1.9805 2.9648h-1.1191l-1.1777-1.9453q-0.11133-0.18164-0.26367-0.45703h-0.02344q-0.0293 0.05274-0.27539 0.45703l-1.2012 1.9453h-1.1074l2.0449-2.9414-1.957-3.0586h1.1191l1.1602 2.0508q0.12891 0.22852 0.25195 0.46875h0.02344l1.5-2.5195z" aria-label="0x"/></svg>
