<?xml version="1.0" encoding="UTF-8" standalone="no"?>
<!-- Created with Inkscape (http://www.inkscape.org/) -->

<svg
   width="24"
   height="24"
   viewBox="0 0 24 24"
   version="1.1"
   id="svg1"
   inkscape:version="1.3.2 (091e20e, 2023-11-25, custom)"
   sodipodi:docname="checksum.svg"
   xml:space="preserve"
   inkscape:export-filename="checksum.png"
   inkscape:export-xdpi="96"
   inkscape:export-ydpi="96"
   xmlns:inkscape="http://www.inkscape.org/namespaces/inkscape"
   xmlns:sodipodi="http://sodipodi.sourceforge.net/DTD/sodipodi-0.dtd"
   xmlns="http://www.w3.org/2000/svg"
   xmlns:svg="http://www.w3.org/2000/svg"><sodipodi:namedview
     id="namedview1"
     pagecolor="#ffffff"
     bordercolor="#000000"
     borderopacity="0.25"
     inkscape:showpageshadow="2"
     inkscape:pageopacity="0.0"
     inkscape:pagecheckerboard="0"
     inkscape:deskcolor="#d1d1d1"
     inkscape:document-units="px"
     inkscape:zoom="22.627417"
     inkscape:cx="41.564621"
     inkscape:cy="19.511728"
     inkscape:window-width="3840"
     inkscape:window-height="2036"
     inkscape:window-x="-12"
     inkscape:window-y="-12"
     inkscape:window-maximized="1"
     inkscape:current-layer="layer1" /><defs
     id="defs1" /><g
     inkscape:label="Layer 1"
     inkscape:groupmode="layer"
     id="layer1"><rect
       style="fill:none;stroke:#ffffff;stroke-width:1.5;stroke-dasharray:none;stroke-opacity:1"
       id="rect1"
       width="16"
       height="16"
       x="4"
       y="4"
       rx="2"
       ry="2" /><path
       style="font-size:12px;font-family:'Segoe UI';-inkscape-font-specification:'Segoe UI';text-align:center;text-anchor:middle;fill:#ffffff;fill-opacity:1"
       d="m 11.8125,11.961914 q 0,1.054688 -0.193359,1.869141 -0.1875,0.814453 -0.550782,1.376953 -0.357421,0.55664 -0.884765,0.849609 -0.5214846,0.28711 -1.1894534,0.28711 -0.6328125,0 -1.1308594,-0.275391 Q 7.3710937,15.788086 7.03125,15.254883 6.6914062,14.72168 6.515625,13.948242 6.3398437,13.168945 6.3398437,12.166992 q 0,-1.101562 0.1816407,-1.945312 0.1875,-0.8437503 0.5449218,-1.4121097 0.3574219,-0.5742187 0.8847657,-0.8613281 0.5332031,-0.2929688 1.21875,-0.2929688 2.6425781,0 2.6425781,4.3066406 z m -0.984375,0.09375 q 0,-3.5859374 -1.7050781,-3.5859374 -1.7988282,0 -1.7988282,3.6503904 0,3.404297 1.7636719,3.404297 1.7402344,0 1.7402344,-3.46875 z m 6.832031,-1.857422 -2.015625,3.035156 1.980469,2.964844 H 16.505859 L 15.328125,14.25293 q -0.111328,-0.181641 -0.263672,-0.457032 h -0.02344 q -0.0293,0.05274 -0.275391,0.457032 l -1.201172,1.945312 h -1.107422 l 2.044922,-2.941406 -1.957031,-3.058594 h 1.119141 l 1.160156,2.050781 q 0.128906,0.228516 0.251953,0.46875 h 0.02344 l 1.5,-2.519531 z"
       id="text1"
       aria-label="0x" /></g></svg>
