<?xml version="1.0" encoding="UTF-8"?>
<svg width="256" height="256" version="1.1" viewBox="0 0 256 256" xmlns="http://www.w3.org/2000/svg">
 <g transform="matrix(.50047 0 0 .50047 -.030323 -.015162)">
  <rect x="128" y="32" width="256" height="448" fill="#4c4c4c"/>
  <g fill="#c7c7c7">
   <rect x="64" y="64" width="64" height="32"/>
   <rect x="64" y="134.32" width="64" height="32"/>
   <rect x="64" y="204.64" width="64" height="32"/>
   <rect x="64" y="274.96" width="64" height="32"/>
   <rect x="64" y="345.28" width="64" height="32"/>
   <rect x="64" y="415.61" width="64" height="32"/>
   <rect x="384" y="64" width="64" height="32"/>
   <rect x="384" y="134.32" width="64" height="32"/>
   <rect x="384" y="204.64" width="64" height="32"/>
   <rect x="384" y="274.96" width="64" height="32"/>
   <rect x="384" y="345.28" width="64" height="32"/>
   <rect x="384" y="415.61" width="64" height="32"/>
  </g>
 </g>
</svg>
